<svg xmlns="http://www.w3.org/2000/svg" xmlns:xlink="http://www.w3.org/1999/xlink" version="1.1" x="0px" y="0px" viewBox="0 0 52 65" style="enable-background:new 0 0 52 52;" xml:space="preserve"><g><path d="M39,35h-6c-0.6,0-1,0.4-1,1s0.4,1,1,1h6c0.6,0,1-0.4,1-1S39.6,35,39,35z"/><path d="M36.5,38h-1c-0.6,0-1,0.4-1,1s0.4,1,1,1h1c0.6,0,1-0.4,1-1S37.1,38,36.5,38z"/><path d="M19,15h-2v-2c0-0.6-0.4-1-1-1s-1,0.4-1,1v2h-2c-0.6,0-1,0.4-1,1s0.4,1,1,1h2v2c0,0.6,0.4,1,1,1s1-0.4,1-1v-2h2   c0.6,0,1-0.4,1-1S19.6,15,19,15z"/><path d="M35.5,34h1c0.6,0,1-0.4,1-1s-0.4-1-1-1h-1c-0.6,0-1,0.4-1,1S34.9,34,35.5,34z"/><path d="M18.8,33.2c-0.4-0.4-1-0.4-1.4,0L16,34.6l-1.4-1.4c-0.4-0.4-1-0.4-1.4,0s-0.4,1,0,1.4l1.4,1.4l-1.4,1.4   c-0.4,0.4-0.4,1,0,1.4c0.2,0.2,0.5,0.3,0.7,0.3s0.5-0.1,0.7-0.3l1.4-1.4l1.4,1.4c0.2,0.2,0.5,0.3,0.7,0.3s0.5-0.1,0.7-0.3   c0.4-0.4,0.4-1,0-1.4L17.4,36l1.4-1.4C19.2,34.2,19.2,33.6,18.8,33.2z"/><path d="M39,15h-6c-0.6,0-1,0.4-1,1s0.4,1,1,1h6c0.6,0,1-0.4,1-1S39.6,15,39,15z"/><path d="M45,2H7C4.2,2,2,4.3,2,7v38c0,2.8,2.2,5,5,5h38c2.8,0,5-2.2,5-5V7C50,4.3,47.8,2,45,2z M24,42c0,1.1-0.9,2-2,2H10   c-1.1,0-2-0.9-2-2V30c0-1.1,0.9-2,2-2h12c1.1,0,2,0.9,2,2V42z M24,22c0,1.1-0.9,2-2,2H10c-1.1,0-2-0.9-2-2V10c0-1.1,0.9-2,2-2h12   c1.1,0,2,0.9,2,2V22z M44,42c0,1.1-0.9,2-2,2H30c-1.1,0-2-0.9-2-2V30c0-1.1,0.9-2,2-2h12c1.1,0,2,0.9,2,2V42z M44,22   c0,1.1-0.9,2-2,2H30c-1.1,0-2-0.9-2-2V10c0-1.1,0.9-2,2-2h12c1.1,0,2,0.9,2,2V22z"/></g><text x="0" y="67" fill="#000000" font-size="5px" font-weight="bold" font-family="'Helvetica Neue', Helvetica, Arial-Unicode, Arial, Sans-serif">Created by DinosoftLabs</text><text x="0" y="72" fill="#000000" font-size="5px" font-weight="bold" font-family="'Helvetica Neue', Helvetica, Arial-Unicode, Arial, Sans-serif">from the Noun Project</text></svg>