<svg xmlns="http://www.w3.org/2000/svg" data-name="Layer 1" viewBox="0 0 48 60" x="0px" y="0px"><title>Web-Development-Icons_DRAFT1</title><path d="M37.5,13h-27A1.5,1.5,0,0,0,9,14.5v16A1.5,1.5,0,0,0,10.5,32h27A1.5,1.5,0,0,0,39,30.5v-16A1.5,1.5,0,0,0,37.5,13ZM15.86,23V22h8v1Zm2,1v1h-4V24Zm-4-5V18h4v1Zm2,2V20h14v1Zm6-4h-10V16h10Zm-8,9h6v1h-6Zm2,2h17v1h-17Z"/><path d="M6,33H42a0,0,0,0,1,0,0v0a1.65,1.65,0,0,1-1.65,1.65H7.65A1.65,1.65,0,0,1,6,33v0a0,0,0,0,1,0,0Z"/><text x="0" y="63" fill="#000000" font-size="5px" font-weight="bold" font-family="'Helvetica Neue', Helvetica, Arial-Unicode, Arial, Sans-serif">Created by un·delivered</text><text x="0" y="68" fill="#000000" font-size="5px" font-weight="bold" font-family="'Helvetica Neue', Helvetica, Arial-Unicode, Arial, Sans-serif">from the Noun Project</text></svg>